# xmcd
#
# Track frame offsets:
# 150
# 16540
# 33935
# 52735
# 66901
# 83940
# 99088
# 120709
# 139934
# 156796
# 179738
# 191869
# 210477
#
# Disc length: 3346 seconds
#
#
# Revision: 0
# Processed by: cddbd v1.5.2PL0 Copyright (c) Steve Scherf et al.
# Submitted via: FreeRIP 2.951 
#
DISCID=a80d100d
DTITLE=K-OS - Atlantis(Hymns For Disco)
DYEAR=1900
DGENRE=Hip-Hop
TTITLE0=ELEctrik HeaT the Seekwill
TTITLE1=The Rain
TTITLE2=flypaper
TTITLE3=Equilizer
TTITLE4=Sunday Morning
TTITLE5=Mirror In The Sky
TTITLE6=Born To Run
TTITLE7=Valhalla(Sam Roberts)
TTITLE8=CatDiesel
TTITLE9=Black Ice Hymn For Dsico
TTITLE10=AquaCityBoy
TTITLE11=Highway Seven
TTITLE12=Ballad Of Noah(Buck65)
EXTD=
EXTT0=
EXTT1=
EXTT2=
EXTT3=
EXTT4=
EXTT5=
EXTT6=
EXTT7=
EXTT8=
EXTT9=
EXTT10=
EXTT11=
EXTT12=
PLAYORDER=
